HIERARCHY
ROOT Hips
{
	OFFSET 0.000000 0.000000 0.000000
	CHANNELS 6 Xposition Yposition Zposition Xrotation Yrotation Zrotation
	JOINT LeftUpLeg_virtual
	{
		OFFSET 0.000000 0.000000 0.000000
		CHANNELS 3 Xrotation Yrotation Zrotation
		JOINT LeftUpLeg
		{
			OFFSET 13.026900 -6.336304 -1.092800
			CHANNELS 3 Xrotation Yrotation Zrotation
			JOINT LeftLeg
			{
				OFFSET 0.524474 -46.096886 9.782700
				CHANNELS 3 Xrotation Yrotation Zrotation
				JOINT LeftFoot
				{
					OFFSET -0.524474 -53.427422 -12.948200
					CHANNELS 3 Xrotation Yrotation Zrotation
					JOINT LeftToeBase
					{
						OFFSET 0.192200 -14.009700 16.364100
						CHANNELS 3 Xrotation Yrotation Zrotation
						JOINT LeftToe_End
						{
							OFFSET -1.784700 -0.561700 9.474800
							CHANNELS 3 Xrotation Yrotation Zrotation
							End Site
							{
								OFFSET 0 0 0
							}
						}
					}
				}
			}
		}
	}
	JOINT RightUpLeg_virtual
	{
		OFFSET 0.000000 0.000000 0.000000
		CHANNELS 3 Xrotation Yrotation Zrotation
		JOINT RightUpLeg
		{
			OFFSET -12.883000 -6.336304 -1.092800
			CHANNELS 3 Xrotation Yrotation Zrotation
			JOINT RightLeg
			{
				OFFSET -0.524587 -46.096825 9.782800
				CHANNELS 3 Xrotation Yrotation Zrotation
				JOINT RightFoot
				{
					OFFSET 0.524587 -53.427383 -12.948300
					CHANNELS 3 Xrotation Yrotation Zrotation
					JOINT RightToeBase
					{
						OFFSET -0.192200 -14.009700 16.364100
						CHANNELS 3 Xrotation Yrotation Zrotation
						JOINT RightToe_End
						{
							OFFSET 1.784700 -0.561700 9.474800
							CHANNELS 3 Xrotation Yrotation Zrotation
							End Site
							{
								OFFSET 0 0 0
							}
						}
					}
				}
			}
		}
	}
	JOINT Spine_virtual
	{
		OFFSET 0.000000 0.000000 0.000000
		CHANNELS 3 Xrotation Yrotation Zrotation
		JOINT Spine
		{
			OFFSET 0.072000 7.257294 -0.789700
			CHANNELS 3 Xrotation Yrotation Zrotation
			JOINT Spine1
			{
				OFFSET 0.000000 12.508769 -0.658067
				CHANNELS 3 Xrotation Yrotation Zrotation
				JOINT Spine1_split
				{
					OFFSET 0.000000 12.508769 -0.658067
					CHANNELS 3 Xrotation Yrotation Zrotation
					JOINT Spine2
					{
						OFFSET 0.000000 12.508769 -0.658067
						CHANNELS 3 Xrotation Yrotation Zrotation
						JOINT Neck_virtual
						{
							OFFSET 0.000000 0.000000 0.000000
							CHANNELS 3 Xrotation Yrotation Zrotation
							JOINT Neck
							{
								OFFSET 0.000000 14.033295 7.520400
								CHANNELS 3 Xrotation Yrotation Zrotation
								JOINT Head
								{
									OFFSET 0.000000 8.198502 5.703100
									CHANNELS 3 Xrotation Yrotation Zrotation
									JOINT HeadTop_End
									{
										OFFSET 0.000000 17.760803 13.332701
										CHANNELS 3 Xrotation Yrotation Zrotation
										End Site
										{
											OFFSET 0 0 0
										}
									}
								}
							}
						}
						JOINT LeftShoulder_virtual
						{
							OFFSET 0.000000 0.000000 0.000000
							CHANNELS 3 Xrotation Yrotation Zrotation
							JOINT LeftShoulder
							{
								OFFSET 6.292450 5.785301 -0.669000
								CHANNELS 3 Xrotation Yrotation Zrotation
								JOINT LeftShoulder_split
								{
									OFFSET 6.292450 5.785301 -0.669000
									CHANNELS 3 Xrotation Yrotation Zrotation
									JOINT LeftArm
									{
										OFFSET 13.907140 -6.093903 1.965100
										CHANNELS 3 Xrotation Yrotation Zrotation
										JOINT LeftForeArm
										{
											OFFSET 34.140198 0.000000 0.000000
											CHANNELS 3 Xrotation Yrotation Zrotation
											JOINT LeftHand
											{
												OFFSET 40.960209 0.000000 0.000000
												CHANNELS 3 Xrotation Yrotation Zrotation
												End Site
												{
													OFFSET 0 0 0
												}
											}
										}
									}
								}
							}
						}
						JOINT RightShoulder_virtual
						{
							OFFSET 0.000000 0.000000 0.000000
							CHANNELS 3 Xrotation Yrotation Zrotation
							JOINT RightShoulder
							{
								OFFSET -6.292450 5.785301 -0.669000
								CHANNELS 3 Xrotation Yrotation Zrotation
								JOINT RightShoulder_split
								{
									OFFSET -6.292450 5.785301 -0.669000
									CHANNELS 3 Xrotation Yrotation Zrotation
									JOINT RightArm
									{
										OFFSET -13.907140 -6.093903 1.965100
										CHANNELS 3 Xrotation Yrotation Zrotation
										JOINT RightForeArm
										{
											OFFSET -34.140198 0.000000 0.000000
											CHANNELS 3 Xrotation Yrotation Zrotation
											JOINT RightHand
											{
												OFFSET -40.960209 0.000000 0.000000
												CHANNELS 3 Xrotation Yrotation Zrotation
												End Site
												{
													OFFSET 0 0 0
												}
											}
										}
									}
								}
							}
						}
					}
				}
			}
		}
	}
}
MOTION
Frames: 4
Frame Time: 0.03333333
-0.334234 112.713554 -4.828869 0.000000 0.000000 0.000000 3.974380 6.603543 -0.789575 -13.659502 8.403288 7.401861 23.623416 1.252160 -1.244850 -13.255458 1.737830 -7.285922 -1.770002 0.295825 0.334670 0.000000 0.000000 0.000000 4.298544 5.317434 -1.219944 -9.130729 -5.333845 -8.423185 21.775087 -5.724877 6.223833 -8.476193 -16.737257 1.313170 -3.950190 0.077606 -0.065439 0.000000 0.000000 0.000000 5.595533 2.847610 -2.108664 18.177737 -2.311212 -0.134229 0.139331 -0.101428 1.126137 1.184233 -0.662366 0.162315 0.000000 0.000000 0.000000 1.268493 -0.491049 0.430661 17.899494 2.972805 -0.671761 11.164933 2.244719 2.233077 0.000000 0.000000 0.000000 1.066131 0.054181 -0.060989 12.412330 -36.730920 -0.539044 1.980901 -1.655397 -3.260860 11.824815 17.361694 -47.101224 -1.283811 -36.917343 0.110730 0.000000 0.000000 0.000000 0.340381 -0.212970 0.690770 0.887866 -1.854492 7.493115 1.473169 6.235944 -1.369916 -0.272613 17.103373 36.718913 0.622921 15.334709 1.339976 0.000000 0.000000 0.000000 
-0.259724 112.865150 -4.543667 0.000000 0.000000 0.000000 3.779790 6.626188 -0.688999 -13.190091 8.590267 7.259763 23.145554 1.308989 -1.185392 -13.329757 1.766129 -7.072792 -1.726725 0.302161 0.336821 0.000000 0.000000 0.000000 4.137844 5.312312 -1.125575 -8.798875 -5.273698 -8.469091 21.568757 -5.575591 6.155668 -8.292074 -16.771434 1.403346 -3.891434 0.067434 -0.061150 0.000000 0.000000 0.000000 5.356330 2.994941 -1.960598 17.576059 -2.348233 -0.126744 0.188993 -0.132092 1.038483 1.242088 -0.718566 0.119594 0.000000 0.000000 0.000000 1.291185 -0.538282 0.335723 17.863361 2.220995 -0.392429 11.214778 -0.265716 3.374695 0.000000 0.000000 0.000000 1.143742 -0.009209 -0.138829 12.126600 -36.461298 -0.520815 1.978762 -1.338385 -3.075911 13.348564 18.041130 -47.365292 -1.325426 -36.541092 0.041608 0.000000 0.000000 0.000000 0.389494 -0.259156 0.649497 0.604713 -2.030811 7.079306 1.681882 6.315111 -1.211334 0.920071 16.358551 36.769060 0.684552 15.279140 1.227055 0.000000 0.000000 0.000000 
-0.206645 112.954971 -4.374977 0.000000 0.000000 0.000000 3.565865 6.611228 -0.629260 -12.799663 8.677351 7.107899 22.761950 1.257247 -1.093617 -13.414832 1.753732 -6.894464 -1.770695 0.300717 0.341574 0.000000 0.000000 0.000000 3.951796 5.261633 -1.068193 -8.520403 -5.236671 -8.479501 21.468948 -5.445262 6.122062 -8.172060 -16.800920 1.458336 -3.861549 0.056141 -0.057472 0.000000 0.000000 0.000000 5.113878 3.115498 -1.858747 17.069288 -2.304337 -0.113500 0.280001 -0.159112 1.021696 1.308923 -0.724535 0.081876 0.000000 0.000000 0.000000 1.303678 -0.571443 0.299078 17.715895 1.564028 -0.149131 11.200942 -2.346987 4.303759 0.000000 0.000000 0.000000 1.255584 -0.071450 -0.138041 11.849892 -35.979954 -0.476529 2.042015 -0.990495 -2.900756 14.357247 18.278737 -47.909341 -1.441738 -36.320716 -0.077509 0.000000 0.000000 0.000000 0.462614 -0.300799 0.661426 0.422019 -2.209643 6.818262 1.915460 6.539443 -1.104481 1.170242 15.779038 37.390761 0.671484 15.059899 1.161979 0.000000 0.000000 0.000000 
-0.169403 112.971764 -4.283878 0.000000 0.000000 0.000000 3.326027 6.585245 -0.593687 -12.517942 8.616506 6.957144 22.566542 1.092858 -0.977127 -13.420587 1.697089 -6.769716 -1.815224 0.294770 0.335022 0.000000 0.000000 0.000000 3.719765 5.212913 -1.029264 -8.271678 -5.211194 -8.463731 21.481865 -5.358153 6.116406 -8.130471 -16.854940 1.467578 -3.864994 0.044140 -0.058722 0.000000 0.000000 0.000000 4.854410 3.235714 -1.789398 16.673291 -2.186275 -0.094920 0.391698 -0.174612 1.066587 1.320278 -0.661838 0.012000 0.000000 0.000000 0.000000 1.291595 -0.584769 0.309183 17.511061 1.020121 0.021056 11.173013 -4.009666 5.058575 0.000000 0.000000 0.000000 1.371602 -0.124886 -0.081589 11.586317 -35.389642 -0.455673 2.044704 -0.598884 -2.780012 14.868792 18.083235 -48.579727 -1.654392 -36.003928 -0.244793 0.000000 0.000000 0.000000 0.534521 -0.326394 0.713592 0.351384 -2.365753 6.795289 2.133060 6.764926 -1.000543 0.619809 15.412783 38.528838 0.619023 14.627115 1.111985 0.000000 0.000000 0.000000 
